<svg width="40" height="40" viewBox="0 0 40 40" fill="none" xmlns="http://www.w3.org/2000/svg">
<g id="Logo icon">
<path id="Ellipse 191" d="M38.9044 26.5287C37.3809 30.9402 34.3626 34.6799 30.3721 37.1003C26.3817 39.5206 21.6705 40.4693 17.0543 39.7819C12.4381 39.0945 8.20766 36.8144 5.09557 33.3363C1.98348 29.8583 0.185712 25.4015 0.0136037 20.7375C-0.158504 16.0736 1.30588 11.4964 4.15317 7.79844C7.00046 4.10052 11.0513 1.51478 15.6043 0.489031C20.1573 -0.536723 24.9256 0.0620975 29.0836 2.18179C33.2415 4.30148 36.5273 7.80857 38.3718 12.0957L28.8252 16.203C27.9392 14.1436 26.3608 12.4589 24.3635 11.4407C22.3661 10.4225 20.0756 10.1348 17.8884 10.6275C15.7013 11.1203 13.7554 12.3624 12.3877 14.1388C11.0199 15.9151 10.3165 18.1139 10.3992 20.3543C10.4818 22.5947 11.3454 24.7356 12.8404 26.4064C14.3353 28.0771 16.3675 29.1724 18.585 29.5026C20.8025 29.8328 23.0656 29.3771 24.9825 28.2144C26.8993 27.0518 28.3492 25.2553 29.0811 23.1362L38.9044 26.5287Z" fill="#E0F780"/>
<circle id="Ellipse 192" cx="20" cy="20" r="8" fill="white"/>
<circle id="Ellipse 193" cx="20" cy="20" r="5" fill="#033F47"/>
</g>
</svg>
